<?xml version="1.0" encoding="utf-8"?>
<!-- Generator: Adobe Illustrator 23.0.3, SVG Export Plug-In . SVG Version: 6.00 Build 0)  -->
<svg version="1.1" xmlns="http://www.w3.org/2000/svg" xmlns:xlink="http://www.w3.org/1999/xlink" x="0px" y="0px"
	 viewBox="0 0 500 500" style="enable-background:new 0 0 500 500;" xml:space="preserve">
<style type="text/css">
	.st0{display:none;}
	.st1{display:inline;fill:none;stroke:#000000;stroke-width:0.1111;stroke-miterlimit:10;}
	.st2{fill:url(#body_1_);}
	.st3{fill:#000033;}
	.st4{fill:url(#tongue_2_);}
	.st5{fill:#FFFFFF;}
</style>
<g id="outline" class="st0">
	<g id="golden-circles_1_">
		<path id="tongue_1_" class="st1" d="M250.04,286.17c-27.1,0-49.95,18.27-56.87,43.18c14.06,10.01,37.36,15.84,56.83,15.84
			c22.31,0,37.9-3.01,55.41-15.84C297.08,306.84,275.44,286.17,250.04,286.17z"/>
		<path id="body_2_" class="st1" d="M250,0C111.93,0,0,111.93,0,250s96.06,250,234.13,250S500,388.07,500,250S388.07,0,250,0z"/>
		<path id="mouth_1_" class="st1" d="M338.77,283.09c-6.91,16.53-18.7,35.53-33.36,46.26c-17.51,12.83-33.1,15.84-55.41,15.84
			c-19.47,0-42.77-5.83-56.83-15.84c-15.37-10.94-26.88-26.88-33.18-45.66c-0.09-0.26-0.18-0.53-0.27-0.8
			c-0.77-2.42-1.19-5.03-1.19-7.75c0-12.45,10.09-22.54,22.54-22.54l136.98-0.45c12.45,0,22.55,10.09,22.55,22.55
			c0,2.42-0.44,4.75-1.24,6.94C339.17,282.13,338.97,282.61,338.77,283.09z"/>
		<path id="right-eye_1_" class="st1" d="M338.26,213.07c-1.15,0.07-2.31,0.1-3.47,0.1c-31,0-53.03-23.89-55.11-54.27v-0.01
			c-0.12-1.56-0.17-3.14-0.17-4.74c0-32.6,26.43-59.02,59.03-59.02c21.14,0,39.69,11.12,50.11,27.84
			c3.28,5.25,5.75,11.05,7.25,17.24c1.09,4.47,1.66,9.14,1.66,13.94C397.56,185.59,369.5,211.28,338.26,213.07z"/>
		<path id="left-eye_1_" class="st1" d="M161.54,95.13c-21.09,0-39.59,11.05-50.03,27.69c-0.01,0-0.01,0.01-0.01,0.02
			c-2.8,5.67-5.28,11.53-7.38,17.56v0.01c-1.05,4.41-1.61,9.01-1.61,13.74c0,32.6,22.68,59.02,55.28,59.02
			c1.36,0,2.71-0.05,4.06-0.14c29.41-1.96,55.85-25.07,58.49-54.11c0.15-1.57,0.22-3.16,0.22-4.77
			C220.56,121.55,194.13,95.13,161.54,95.13z"/>
		<path id="left-pupil_1_" class="st1" d="M203.64,166.22c-1.22,11.45-12.13,20.41-23.87,20.41c-0.47,0-0.93-0.01-1.38-0.05
			c-11.7-0.71-19.73-10.5-19.73-22.49c0-12.46,10.09-22.55,22.55-22.55c12.45,0,22.54,10.09,22.54,22.55
			C203.75,164.81,203.71,165.52,203.64,166.22z"/>
		<path id="right-pupil_1_" class="st1" d="M341.25,164.09c0,11.05-9.08,20.25-19.84,22.16c-1.36,0.25-2.74,0.38-4.14,0.38
			c-11.77,0-20.15-9.02-21.03-20.52c-0.05-0.67-0.08-1.34-0.08-2.02c0-12.46,10.09-22.55,22.54-22.55
			C331.16,141.54,341.25,151.63,341.25,164.09z"/>
	</g>
</g>
<g id="color">
	<g id="golden-circles">
		<linearGradient id="body_1_" gradientUnits="userSpaceOnUse" x1="88.5599" y1="407.6432" x2="396.8564" y2="99.3467">
			<stop  offset="0" style="stop-color:#20C2D5"/>
			<stop  offset="0.5" style="stop-color:#19C091"/>
			<stop  offset="0.5809" style="stop-color:#29C792"/>
			<stop  offset="0.7387" style="stop-color:#52D995"/>
			<stop  offset="0.9561" style="stop-color:#95F699"/>
			<stop  offset="1" style="stop-color:#A3FC9A"/>
		</linearGradient>
		<path id="body" class="st2" d="M250,0C111.93,0,0,111.93,0,250s96.06,250,234.13,250S500,388.07,500,250S388.07,0,250,0z"/>
		<path id="mouth" class="st3" d="M338.77,283.09c-6.91,16.53-18.7,35.53-33.36,46.26c-17.51,12.83-33.1,15.84-55.41,15.84
			c-19.47,0-42.77-5.83-56.83-15.84c-15.37-10.94-26.88-26.88-33.18-45.66c-0.09-0.26-0.18-0.53-0.27-0.8
			c-0.77-2.42-1.19-5.03-1.19-7.75c0-12.45,10.09-22.54,22.54-22.54l136.98-0.45c12.45,0,22.55,10.09,22.55,22.55
			c0,2.42-0.44,4.75-1.24,6.94C339.17,282.13,338.97,282.61,338.77,283.09z"/>
		<linearGradient id="tongue_2_" gradientUnits="userSpaceOnUse" x1="218.5406" y1="354.7206" x2="279.2422" y2="294.019">
			<stop  offset="0" style="stop-color:#C01983"/>
			<stop  offset="1" style="stop-color:#C1737B"/>
		</linearGradient>
		<path id="tongue" class="st4" d="M250.04,286.17c-27.1,0-49.95,18.27-56.87,43.18c14.06,10.01,37.36,15.84,56.83,15.84
			c22.31,0,37.9-3.01,55.41-15.84C297.08,306.84,275.44,286.17,250.04,286.17z"/>
		<path id="right-eye" class="st5" d="M338.26,213.07c-1.15,0.07-2.31,0.1-3.47,0.1c-31,0-53.03-23.89-55.11-54.27v-0.01
			c-0.12-1.56-0.17-3.14-0.17-4.74c0-32.6,26.43-59.02,59.03-59.02c21.14,0,39.69,11.12,50.11,27.84
			c3.28,5.25,5.75,11.05,7.25,17.24c1.09,4.47,1.66,9.14,1.66,13.94C397.56,185.59,369.5,211.28,338.26,213.07z"/>
		<path id="left-eye" class="st5" d="M161.54,95.13c-21.09,0-39.59,11.05-50.03,27.69c-0.01,0-0.01,0.01-0.01,0.02
			c-2.8,5.67-5.28,11.53-7.38,17.56v0.01c-1.05,4.41-1.61,9.01-1.61,13.74c0,32.6,22.68,59.02,55.28,59.02
			c1.36,0,2.71-0.05,4.06-0.14c29.41-1.96,55.85-25.07,58.49-54.11c0.15-1.57,0.22-3.16,0.22-4.77
			C220.56,121.55,194.13,95.13,161.54,95.13z"/>
		<path id="left-pupil" class="st3" d="M203.64,166.22c-1.22,11.45-12.13,20.41-23.87,20.41c-0.47,0-0.93-0.01-1.38-0.05
			c-11.7-0.71-19.73-10.5-19.73-22.49c0-12.46,10.09-22.55,22.55-22.55c12.45,0,22.54,10.09,22.54,22.55
			C203.75,164.81,203.71,165.52,203.64,166.22z"/>
		<path id="right-pupil" class="st3" d="M341.25,164.09c0,11.05-9.08,20.25-19.84,22.16c-1.36,0.25-2.74,0.38-4.14,0.38
			c-11.77,0-20.15-9.02-21.03-20.52c-0.05-0.67-0.08-1.34-0.08-2.02c0-12.46,10.09-22.55,22.54-22.55
			C331.16,141.54,341.25,151.63,341.25,164.09z"/>
	</g>
</g>
</svg>
