<svg id="Layer_1" data-name="Layer 1" xmlns="http://www.w3.org/2000/svg" xmlns:xlink="http://www.w3.org/1999/xlink" viewBox="0 0 500 500"><defs><style>.cls-1{fill:url(#radial-gradient);}.cls-2{fill:#003;}.cls-3{fill:url(#radial-gradient-2);}.cls-4{fill:#fff;}</style><radialGradient id="radial-gradient" cx="250" cy="250" r="250" gradientUnits="userSpaceOnUse"><stop offset="0" stop-color="#6c6"/><stop offset="0.445" stop-color="#64cb66"/><stop offset="0.606" stop-color="#5dc866"/><stop offset="0.72" stop-color="#52c266"/><stop offset="0.813" stop-color="#41b966"/><stop offset="0.892" stop-color="#2bae66"/><stop offset="0.961" stop-color="#10a166"/><stop offset="0.994" stop-color="#096"/></radialGradient><radialGradient id="radial-gradient-2" cx="249.29" cy="315.68" r="44.835" gradientUnits="userSpaceOnUse"><stop offset="0" stop-color="#c69"/><stop offset="0.291" stop-color="#cc6399"/><stop offset="0.546" stop-color="#cc5899"/><stop offset="0.785" stop-color="#cc4699"/><stop offset="0.967" stop-color="#c39"/></radialGradient></defs><title>peapods-favicon-golden</title><g id="golden-circles"><path id="body" class="cls-1" d="M250,0C111.93,0,0,111.93,0,250S96.06,500,234.13,500,500,388.07,500,250,388.07,0,250,0Z" transform="translate(0 0)"/><path id="mouth" class="cls-2" d="M338.77,283.09c-6.91,16.53-18.7,35.53-33.36,46.26-17.51,12.83-33.1,15.84-55.41,15.84-19.47,0-42.77-5.83-56.83-15.84-15.37-10.94-26.88-26.88-33.18-45.66-.09-.26-.18-.53-.27-.8a25.55,25.55,0,0,1-1.19-7.75,22.538,22.538,0,0,1,22.54-22.54l136.98-.45A22.549,22.549,0,0,1,340.6,274.7a20.163,20.163,0,0,1-1.24,6.94C339.17,282.13,338.97,282.61,338.77,283.09Z" transform="translate(0 0)"/><path id="tongue" class="cls-3" d="M250.04,286.17a59.044,59.044,0,0,0-56.87,43.18c14.06,10.01,37.36,15.84,56.83,15.84,22.31,0,37.9-3.01,55.41-15.84C297.08,306.84,275.44,286.17,250.04,286.17Z" transform="translate(0 0)"/><path id="right-eye" class="cls-4" d="M338.26,213.07c-1.15.07-2.31.1-3.47.1-31,0-53.03-23.89-55.11-54.27v-.01c-.12-1.56-.17-3.14-.17-4.74a59.025,59.025,0,1,1,118.05,0C397.56,185.59,369.5,211.28,338.26,213.07Z" transform="translate(0 0)"/><path id="left-eye" class="cls-4" d="M161.54,95.13a58.964,58.964,0,0,0-50.03,27.69c-.01,0-.01.01-.01.02a154.247,154.247,0,0,0-7.38,17.56v.01a59.258,59.258,0,0,0-1.61,13.74c0,32.6,22.68,59.02,55.28,59.02,1.36,0,2.71-.05,4.06-.14,29.41-1.96,55.85-25.07,58.49-54.11.15-1.57.22-3.16.22-4.77A59.021,59.021,0,0,0,161.54,95.13Z" transform="translate(0 0)"/><path id="left-pupil" class="cls-2" d="M203.64,166.22c-1.22,11.45-12.13,20.41-23.87,20.41-.47,0-.93-.01-1.38-.05-11.7-.71-19.73-10.5-19.73-22.49a22.545,22.545,0,1,1,45.09,0C203.75,164.81,203.71,165.52,203.64,166.22Z" transform="translate(0 0)"/><path id="right-pupil" class="cls-2" d="M341.25,164.09c0,11.05-9.08,20.25-19.84,22.16a22.854,22.854,0,0,1-4.14.38c-11.77,0-20.15-9.02-21.03-20.52-.05-.67-.08-1.34-.08-2.02a22.545,22.545,0,1,1,45.09,0Z" transform="translate(0 0)"/></g></svg>